<svg width="200" height="200" viewBox="0 0 200 200" fill="none" xmlns="http://www.w3.org/2000/svg">
<rect x="110" y="73" width="58" height="55" fill="white"/>
<path d="M58.3333 58.3333C35.3215 58.3333 16.6666 76.9882 16.6666 100C16.6666 123.012 35.3215 141.667 58.3333 141.667H141.667C164.678 141.667 183.333 123.012 183.333 100C183.333 76.9882 164.678 58.3333 141.667 58.3333H58.3333ZM139.583 120.833C128.077 120.833 118.75 111.506 118.75 100C118.75 88.4942 128.077 79.1667 139.583 79.1667C151.089 79.1667 160.417 88.4942 160.417 100C160.417 111.506 151.089 120.833 139.583 120.833Z" fill="#5FBE7A"/>
</svg>